<svg xmlns="http://www.w3.org/2000/svg" xmlns:xlink="http://www.w3.org/1999/xlink" width="1138.125" height="1442.906">
<g transform="translate(199.125 235.469)">
<g fill="#f4d7d7" font-size="1538.702" font-weight="700" letter-spacing="0" word-spacing="0" font-family="Arial">
<path d="M-728.534 759.759h-191.587c-.5-27.548-.751-44.328-.751-50.339 0-62.108 10.268-113.198 30.804-153.269 20.536-40.07 61.608-85.149 123.217-135.237 61.607-50.088 98.422-82.895 110.444-98.423 18.531-24.543 27.798-51.59 27.798-81.143 0-41.071-16.404-76.258-49.211-105.56-32.808-29.3-77.01-43.951-132.608-43.952-53.595 0-98.423 15.277-134.486 45.83-36.064 30.555-60.857 77.136-74.38 139.745l-193.841-24.042c5.51-89.656 43.701-165.79 114.576-228.4 70.874-62.61 163.912-93.915 279.115-93.916 121.212.001 217.632 31.682 289.258 95.042 71.625 63.362 107.438 137.117 107.439 221.264-.001 46.582-13.15 90.66-39.444 132.232-26.297 41.574-82.521 98.173-168.672 169.798-44.579 37.066-72.252 66.868-83.02 89.407-10.77 22.54-15.653 62.86-14.651 120.963zM-920.12 1078.93V885.646h193.284v193.284z" style="line-height:125%;-inkscape-font-specification:Arial Bold"/></g><path id="a" fill-opacity="1" fill-rule="nonzero" stroke="none" d="M-312.509-87.898h45.408v45.408h-45.408z"/>
<use transform="rotate(21.611 -1666.251 1588.22) scale(.8804)" xlink:href="#a" width="744.094" height="1052.362" fill="#0e008d" stroke="#0e008d"/>
<use transform="matrix(.64155 .66722 -.66722 .64155 434.337 756)" xlink:href="#a" width="744.094" height="1052.362" fill="#56facc" stroke="#56facc"/>
<use transform="rotate(13.266 -2353.09 3027.083) scale(1.07019)" xlink:href="#a" width="744.094" height="1052.362" fill="#aea61e" stroke="#aea61e"/>
<use transform="rotate(-9.023 3762.392 -3958.53) scale(1.12018)" xlink:href="#a" width="744.094" height="1052.362" fill="#ab05ff" stroke="#ab05ff"/>
<use transform="rotate(76.897 -416.047 677.182) scale(1.1911)" xlink:href="#a" width="744.094" height="1052.362" fill="#00317d" stroke="#00317d"/>
<use transform="rotate(41.387 -598.134 991.459) scale(.71304)" xlink:href="#a" width="744.094" height="1052.362" fill="#88de32" stroke="#88de32"/>
<use transform="rotate(-15.553 2177.78 -2195.482) scale(.93603)" xlink:href="#a" width="744.094" height="1052.362" fill="#65a0d1" stroke="#65a0d1"/>
<use transform="rotate(10.806 -3404.306 4169.21) scale(1.24135)" xlink:href="#a" width="744.094" height="1052.362" fill="#7b3a16" stroke="#7b3a16"/>
<use transform="rotate(66.618 -289.755 721.092) scale(.73889)" xlink:href="#a" width="744.094" height="1052.362" fill="#bfd900" stroke="#bfd900"/>
<use transform="rotate(-10.88 3190.743 -3993.326) scale(1.24239)" xlink:href="#a" width="744.094" height="1052.362" fill="#4900f9" stroke="#4900f9"/>
<use transform="matrix(.83115 -.19047 .19047 .83115 686.218 565.247)" xlink:href="#a" width="744.094" height="1052.362" fill="#a0550a" stroke="#a0550a"/>
<use transform="rotate(-70.896 494.045 -311.53) scale(.90942)" xlink:href="#a" width="744.094" height="1052.362" fill="#c12c61" stroke="#c12c61"/>
<use transform="rotate(-55.67 652.916 -479.596) scale(.9351)" xlink:href="#a" width="744.094" height="1052.362" fill="#698ce1" stroke="#698ce1"/>
<use transform="rotate(-38.799 979.394 -824.253) scale(.97717)" xlink:href="#a" width="744.094" height="1052.362" fill="#23888b" stroke="#23888b"/>
<use transform="matrix(1.11776 -.6391 .6391 1.11776 883.175 367.626)" xlink:href="#a" width="744.094" height="1052.362" fill="#9d6529" stroke="#9d6529"/>
<use transform="matrix(.17707 -1.0848 1.0848 .17707 644.032 211.653)" xlink:href="#a" width="744.094" height="1052.362" fill="#009334" stroke="#009334"/>
<use transform="rotate(64.938 -368.763 890.53) scale(.97041)" xlink:href="#a" width="744.094" height="1052.362" fill="#3b77d1" stroke="#3b77d1"/>
<use transform="rotate(-42.085 855.118 -987.337) scale(1.15458)" xlink:href="#a" width="744.094" height="1052.362" fill="#6705fb" stroke="#6705fb"/>
<use transform="rotate(49.625 -500.758 1142.801) scale(.95151)" xlink:href="#a" width="744.094" height="1052.362" fill="#007150" stroke="#007150"/>
<use transform="matrix(.84528 .57362 -.57362 .84528 820.128 698.518)" xlink:href="#a" width="744.094" height="1052.362" fill="#f79000" stroke="#f79000"/>
<use transform="rotate(-3.415 10320.865 -15578.583) scale(1.15427)" xlink:href="#a" width="744.094" height="1052.362" fill="#2152ff" stroke="#2152ff"/>
<use transform="matrix(.72306 -.1617 .1617 .72306 874.508 485.783)" xlink:href="#a" width="744.094" height="1052.362" fill="#1d6aff" stroke="#1d6aff"/>
<use transform="rotate(-72.436 659.348 17.954) scale(1.28534)" xlink:href="#a" width="744.094" height="1052.362" fill="#3a56ec" stroke="#3a56ec"/>
<use transform="rotate(-5.13 11779.94 -7043.427) scale(1.29645)" xlink:href="#a" width="744.094" height="1052.362" fill="#e025f0" stroke="#e025f0"/>
<use transform="matrix(.85 -.54133 .54133 .85 617.035 883.95)" xlink:href="#a" width="744.094" height="1052.362" fill="#d0b238" stroke="#d0b238"/>
<use transform="rotate(24.167 -2372.554 1691.465) scale(1.00262)" xlink:href="#a" width="744.094" height="1052.362" fill="#d57cd6" stroke="#d57cd6"/>
<use transform="rotate(68.528 -661.105 862.972) scale(.77088)" xlink:href="#a" width="744.094" height="1052.362" fill="#c4209a" stroke="#c4209a"/>
<use transform="matrix(.45287 -.61786 .61786 .45287 607.935 789.751)" xlink:href="#a" width="744.094" height="1052.362" fill="#32ff43" stroke="#32ff43"/>
<use transform="scale(.7697) rotate(71.192 -318.07 235.1)" xlink:href="#a" width="744.094" height="1052.362" fill="#f876ba" stroke="#f876ba"/>
<use transform="matrix(.3497 .95932 -.95932 .3497 10.437 451.648)" xlink:href="#a" width="744.094" height="1052.362" fill="#009a3d" stroke="#009a3d"/>
<use transform="matrix(1.26103 -.25236 .25236 1.26103 354.567 206.999)" xlink:href="#a" width="744.094" height="1052.362" fill="#a31a29" stroke="#a31a29"/>
<use transform="rotate(64.726 -400.64 293.632) scale(.95437)" xlink:href="#a" width="744.094" height="1052.362" fill="#144c8c" stroke="#144c8c"/>
<use transform="rotate(-17.98 184.992 -1028.245) scale(1.02436)" xlink:href="#a" width="744.094" height="1052.362" fill="#70b0d8" stroke="#70b0d8"/>
<use transform="rotate(-50.799 20.687 -322.322) scale(.93772)" xlink:href="#a" width="744.094" height="1052.362" fill="#827b12" stroke="#827b12"/>
<use transform="rotate(25.287 -501.308 614.346) scale(.83007)" xlink:href="#a" width="744.094" height="1052.362" fill="#ff7a19" stroke="#ff7a19"/>
<use transform="rotate(1.097 -13309.084 20376.932) scale(1.22645)" xlink:href="#a" width="744.094" height="1052.362" fill="#f52748" stroke="#f52748"/>
<use transform="scale(1.17243) rotate(-80.715 17.85 -127.446)" xlink:href="#a" width="744.094" height="1052.362" fill="#1222ea" stroke="#1222ea"/>
<use transform="rotate(-39.782 323.733 -364.114) scale(1.04049)" xlink:href="#a" width="744.094" height="1052.362" fill="#ad1ead" stroke="#ad1ead"/>
<use transform="rotate(-68.715 120.801 -127.672) scale(1.03817)" xlink:href="#a" width="744.094" height="1052.362" fill="#da72ad" stroke="#da72ad"/>
<use transform="rotate(40.901 -271.024 524.82) scale(1.16658)" xlink:href="#a" width="744.094" height="1052.362" fill="#3d75c3" stroke="#3d75c3"/>
<use transform="matrix(.60125 1.07574 -1.07574 .60125 166.23 420.27)" xlink:href="#a" width="744.094" height="1052.362" fill="#4cdcd1" stroke="#4cdcd1"/>
<use transform="rotate(-34.48 183.923 -604.678) scale(1.12325)" xlink:href="#a" width="744.094" height="1052.362" fill="#26ff27" stroke="#26ff27"/>
<use transform="rotate(-56.508 88.04 -383.505) scale(1.29935)" xlink:href="#a" width="744.094" height="1052.362" fill="#4effda" stroke="#4effda"/>
<use transform="rotate(66.616 -317.576 354.914) scale(.99075)" xlink:href="#a" width="744.094" height="1052.362" fill="#8a5a61" stroke="#8a5a61"/>
<use transform="rotate(65.542 -370.253 394.132) scale(1.08774)" xlink:href="#a" width="744.094" height="1052.362" fill="#4f00f2" stroke="#4f00f2"/>
<use transform="scale(.9922) rotate(31.911 -743.136 771.387)" xlink:href="#a" width="744.094" height="1052.362" fill="#730461" stroke="#730461"/>
<use transform="scale(1.26232) rotate(18.263 -267.193 1146.69)" xlink:href="#a" width="744.094" height="1052.362" fill="#0a0077" stroke="#0a0077"/>
<use transform="rotate(33.742 -273.764 697.61) scale(1.12295)" xlink:href="#a" width="744.094" height="1052.362" fill="#db435e" stroke="#db435e"/>
<use transform="scale(.88326) rotate(-76.197 16.945 -262.543)" xlink:href="#a" width="744.094" height="1052.362" fill="#6dffae" stroke="#6dffae"/>
<use transform="matrix(.21097 .9506 -.9506 .21097 122.598 402.662)" xlink:href="#a" width="744.094" height="1052.362" fill="#c4752e" stroke="#c4752e"/>
<use transform="scale(.8419) rotate(-27.722 425.143 -812.672)" xlink:href="#a" width="744.094" height="1052.362" fill="#ff4539" stroke="#ff4539"/>
<use transform="rotate(36.129 -545.088 746.205) scale(1.14427)" xlink:href="#a" width="744.094" height="1052.362" fill="#b368f4" stroke="#b368f4"/>
<use transform="scale(.95436) rotate(29.342 -721.802 917.168)" xlink:href="#a" width="744.094" height="1052.362" fill="#ff2a6a" stroke="#ff2a6a"/>
<use transform="matrix(.92576 .56281 -.56281 .92576 357.855 511.5)" xlink:href="#a" width="744.094" height="1052.362" fill="#ff1895" stroke="#ff1895"/>
<use transform="matrix(.5815 -1.0902 1.0902 .5815 403.592 -344.033)" xlink:href="#a" width="744.094" height="1052.362" fill="#2fe7c4" stroke="#2fe7c4"/>
<use transform="rotate(-2.252 1161.813 -11606.38) scale(.97055)" xlink:href="#a" width="744.094" height="1052.362" fill="#caff4e" stroke="#caff4e"/>
<use transform="scale(1.1166) rotate(24.04 -290.74 992.648)" xlink:href="#a" width="744.094" height="1052.362" fill="#7484dc" stroke="#7484dc"/>
<use transform="rotate(44.436 -230.224 561.518) scale(.98528)" xlink:href="#a" width="744.094" height="1052.362" fill="#de8f00" stroke="#de8f00"/>
<use transform="matrix(.51104 -.49462 .49462 .51104 355.316 4.276)" xlink:href="#a" width="744.094" height="1052.362" fill="#b913fa" stroke="#b913fa"/>
<use transform="rotate(-78.243 72.547 -246.397) scale(1.06559)" xlink:href="#a" width="744.094" height="1052.362" fill="#ac0c36" stroke="#ac0c36"/>
<use transform="rotate(74.53 -219.657 360.585) scale(.8896)" xlink:href="#a" width="744.094" height="1052.362" fill="#0069cb" stroke="#0069cb"/>
<use transform="rotate(-26.803 596.879 -666.77) scale(.73549)" xlink:href="#a" width="744.094" height="1052.362" fill="#31ad08" stroke="#31ad08"/>
<use transform="rotate(-22.143 858.468 -1148.666) scale(1.13556)" xlink:href="#a" width="744.094" height="1052.362" fill="#dace39" stroke="#dace39"/>
<use transform="matrix(1.22133 -.0208 .0208 1.22133 559.352 14.374)" xlink:href="#a" width="744.094" height="1052.362" fill="#d9008a" stroke="#d9008a"/>
<use transform="rotate(11.502 -183.32 2058.65) scale(.73138)" xlink:href="#a" width="744.094" height="1052.362" fill="#658a2e" stroke="#658a2e"/>
<use transform="rotate(80.217 -139.567 309.924) scale(1.2476)" xlink:href="#a" width="744.094" height="1052.362" fill="#0bb300" stroke="#0bb300"/>
<use transform="rotate(-72.501 45.268 -347.314) scale(1.04076)" xlink:href="#a" width="744.094" height="1052.362" fill="#7a68e0" stroke="#7a68e0"/>
<use transform="matrix(.6139 -.70653 .70653 .6139 434.736 -48.756)" xlink:href="#a" width="744.094" height="1052.362" fill="#ed0009" stroke="#ed0009"/>
<use transform="rotate(34.938 -447.24 924.793) scale(1.19505)" xlink:href="#a" width="744.094" height="1052.362" fill="#d700c7" stroke="#d700c7"/>
<use transform="matrix(.66095 -.95633 .95633 .66095 466.664 -32.69)" xlink:href="#a" width="744.094" height="1052.362" fill="#dfcfca" stroke="#dfcfca"/>
<use transform="rotate(64.385 -280.307 466.674) scale(.95177)" xlink:href="#a" width="744.094" height="1052.362" fill="#0d4c84" stroke="#0d4c84"/>
<use transform="matrix(.63284 .86826 -.86826 .63284 393.117 229.547)" xlink:href="#a" width="744.094" height="1052.362" fill="#3f28ff" stroke="#3f28ff"/>
<use transform="rotate(69.46 -34.434 347.335) scale(.91906)" xlink:href="#a" width="744.094" height="1052.362" fill="#800018" stroke="#800018"/>
<use transform="rotate(20.19 -303.15 1653.82) scale(1.16519)" xlink:href="#a" width="744.094" height="1052.362" fill="#f87383" stroke="#f87383"/>
<use transform="scale(.75485) rotate(74.952 -73.36 431.017)" xlink:href="#a" width="744.094" height="1052.362" fill="#126e21" stroke="#126e21"/>
<use transform="rotate(47.98 -237.464 652.516) scale(1.06396)" xlink:href="#a" width="744.094" height="1052.362" fill="#ff44b9" stroke="#ff44b9"/>
<use transform="matrix(.81902 .99838 -.99838 .81902 419.344 500.35)" xlink:href="#a" width="744.094" height="1052.362" fill="#5e186c" stroke="#5e186c"/>
<use transform="matrix(.77982 .61336 -.61336 .77982 433.546 849.173)" xlink:href="#a" width="744.094" height="1052.362" fill="#9f39e6" stroke="#9f39e6"/>
<use transform="matrix(.3069 .85773 -.85773 .3069 294.138 920.805)" xlink:href="#a" width="744.094" height="1052.362" fill="#ce31a5" stroke="#ce31a5"/>
<use transform="rotate(-48.362 868.684 -205.405) scale(.76894)" xlink:href="#a" width="744.094" height="1052.362" fill="#ebeadd" stroke="#ebeadd"/>
<use transform="rotate(-14.189 3260.17 -1854.78) scale(1.01175)" xlink:href="#a" width="744.094" height="1052.362" fill="#f2709a" stroke="#f2709a"/>
<use transform="scale(.8203) rotate(-66.87 883.36 59.704)" xlink:href="#a" width="744.094" height="1052.362" fill="#0ccfbb" stroke="#0ccfbb"/>
<use transform="rotate(19.469 -3260.093 2267.342) scale(1.21744)" xlink:href="#a" width="744.094" height="1052.362" fill="#de00ba" stroke="#de00ba"/>
<use transform="rotate(58.435 -977.74 944.416) scale(.77977)" xlink:href="#a" width="744.094" height="1052.362" fill="#ee13bf" stroke="#ee13bf"/>
<use transform="scale(.7306) rotate(30.667 78.7 1190.57)" xlink:href="#a" width="744.094" height="1052.362" fill="#008170" stroke="#008170"/>
<use transform="matrix(1.10568 .60602 -.60602 1.10568 587.397 228.831)" xlink:href="#a" width="744.094" height="1052.362" fill="#00b9a8" stroke="#00b9a8"/>
<use transform="matrix(.70079 -.40984 .40984 .70079 538.114 -42.53)" xlink:href="#a" width="744.094" height="1052.362" fill="#34e473" stroke="#34e473"/>
<use transform="matrix(.6682 -.55082 .55082 .6682 533.924 -37.084)" xlink:href="#a" width="744.094" height="1052.362" fill="#36c38f" stroke="#36c38f"/>
<use transform="scale(1.1469) rotate(73.633 -119.195 388.46)" xlink:href="#a" width="744.094" height="1052.362" fill="#008510" stroke="#008510"/>
<use transform="rotate(31.845 -1198.477 1431.474) scale(1.29883)" xlink:href="#a" width="744.094" height="1052.362" fill="#e471a4" stroke="#e471a4"/>
<use transform="scale(.92998) rotate(75.431 -453.639 693.228)" xlink:href="#a" width="744.094" height="1052.362" fill="#da86af" stroke="#da86af"/>
<use transform="matrix(.2125 1.08007 -1.08007 .2125 301.468 983.805)" xlink:href="#a" width="744.094" height="1052.362" fill="#55ff89" stroke="#55ff89"/>
<use transform="rotate(-76.64 481.815 -53.859) scale(1.02235)" xlink:href="#a" width="744.094" height="1052.362" fill="#ff0098" stroke="#ff0098"/>
<use transform="matrix(.50754 .66972 -.66972 .50754 404.013 982.06)" xlink:href="#a" width="744.094" height="1052.362" fill="#14c9de" stroke="#14c9de"/>
<use transform="scale(.80898) rotate(-66.015 932.809 10.624)" xlink:href="#a" width="744.094" height="1052.362" fill="#4b008c" stroke="#4b008c"/>
<use transform="rotate(45.073 -1159.909 1082.509) scale(.84184)" xlink:href="#a" width="744.094" height="1052.362" fill="#628f9f" stroke="#628f9f"/>
<use transform="rotate(57.336 -937.03 968.68) scale(.76147)" xlink:href="#a" width="744.094" height="1052.362" fill="#64d8b1" stroke="#64d8b1"/>
<use transform="rotate(-34.697 1805.765 -403.187) scale(.93998)" xlink:href="#a" width="744.094" height="1052.362" fill="#ff30af" stroke="#ff30af"/>
<use transform="rotate(-75.784 57.097 -408.093) scale(.72035)" xlink:href="#a" width="744.094" height="1052.362" fill="#00c1c3" stroke="#00c1c3"/>
<use transform="rotate(-78.575 69.725 -393.647) scale(.82399)" xlink:href="#a" width="744.094" height="1052.362" fill="#5a8800" stroke="#5a8800"/>
<use transform="rotate(-35.57 175.042 -907.226) scale(.79463)" xlink:href="#a" width="744.094" height="1052.362" fill="#990082" stroke="#990082"/>
<use transform="rotate(65.969 -113.35 526.514) scale(1.22182)" xlink:href="#a" width="744.094" height="1052.362" fill="#ea5623" stroke="#ea5623"/>
<use transform="matrix(.89951 .80229 -.80229 .89951 561.342 412.089)" xlink:href="#a" width="744.094" height="1052.362" fill="#74309a" stroke="#74309a"/>
<use transform="matrix(1.05326 .08162 -.08162 1.05326 635.843 700.47)" xlink:href="#a" width="744.094" height="1052.362" fill="#2aa080" stroke="#2aa080"/>
<use transform="matrix(.4606 -.5281 .5281 .4606 522.41 547.3)" xlink:href="#a" width="744.094" height="1052.362" fill="#afff04" stroke="#afff04"/>
<use transform="rotate(-30.201 1469.102 -917.805) scale(1.0913)" xlink:href="#a" width="744.094" height="1052.362" fill="#a04714" stroke="#a04714"/>
<use transform="matrix(.78779 -.29519 .29519 .78779 587.87 721.701)" xlink:href="#a" width="744.094" height="1052.362" fill="#9eda4f" stroke="#9eda4f"/>
<use transform="rotate(-5.272 10124.49 -7319.482) scale(1.22199)" xlink:href="#a" width="744.094" height="1052.362" fill="#771387" stroke="#771387"/>
<use transform="rotate(28.872 -1836.873 1660.065) scale(1.00605)" xlink:href="#a" width="744.094" height="1052.362" fill="#832c27" stroke="#832c27"/>
<use transform="matrix(1.09693 -.38644 .38644 1.09693 698.397 985.237)" xlink:href="#a" width="744.094" height="1052.362" fill="#9cffcc" stroke="#9cffcc"/>
<use transform="scale(.81802) rotate(8.509 -9214.946 5345.894)" xlink:href="#a" width="744.094" height="1052.362" fill="#ff5d75" stroke="#ff5d75"/>
<use transform="rotate(59.665 59.851 525.377) scale(.95427)" xlink:href="#a" width="744.094" height="1052.362" fill="#0eab26" stroke="#0eab26"/>
<use transform="scale(1.25163) rotate(63.132 -27.598 440.15)" xlink:href="#a" width="744.094" height="1052.362" fill="#4786ba" stroke="#4786ba"/>
<use transform="rotate(-62.243 99.335 -638.185) scale(1.23044)" xlink:href="#a" width="744.094" height="1052.362" fill="#dc3751" stroke="#dc3751"/>
<use transform="rotate(60.758 -111.575 632.248) scale(1.24732)" xlink:href="#a" width="744.094" height="1052.362" fill="#6de539" stroke="#6de539"/>
<use transform="rotate(-68.825 386.513 -341.474) scale(1.02839)" xlink:href="#a" width="744.094" height="1052.362" fill="#b2a03e" stroke="#b2a03e"/>
<use transform="matrix(1.02747 .08825 -.08825 1.02747 682.88 526.21)" xlink:href="#a" width="744.094" height="1052.362" fill="#40ffba" stroke="#40ffba"/>
<use transform="rotate(52.207 -702.177 1028.873) scale(1.26888)" xlink:href="#a" width="744.094" height="1052.362" fill="#732257" stroke="#732257"/>
<use transform="rotate(21.908 -1904.77 2210.769) scale(1.19647)" xlink:href="#a" width="744.094" height="1052.362" fill="#f200f2" stroke="#f200f2"/>
<use transform="matrix(1.00256 -.3405 .3405 1.00256 709.108 663.153)" xlink:href="#a" width="744.094" height="1052.362" fill="#01f290" stroke="#01f290"/>
<use transform="matrix(.9409 .10522 -.10522 .9409 649.72 846.168)" xlink:href="#a" width="744.094" height="1052.362" fill="#1fa460" stroke="#1fa460"/>
<use transform="matrix(.71822 -.81227 .81227 .71822 644.142 696.681)" xlink:href="#a" width="744.094" height="1052.362" fill="#7800a1" stroke="#7800a1"/>
<use transform="rotate(36.648 -1456.878 1476.767) scale(1.01188)" xlink:href="#a" width="744.094" height="1052.362" fill="#353bde" stroke="#353bde"/>
<use transform="matrix(.4028 .57459 -.57459 .4028 459.511 1170.233)" xlink:href="#a" width="744.094" height="1052.362" fill="#1dffc2" stroke="#1dffc2"/>
<use transform="matrix(.79749 .86154 -.86154 .79749 568.685 1322.115)" xlink:href="#a" width="744.094" height="1052.362" fill="#6c5db6" stroke="#6c5db6"/>
<use transform="rotate(52.237 -1057.508 1118.542) scale(.71151)" xlink:href="#a" width="744.094" height="1052.362" fill="#b201ab" stroke="#b201ab"/>
<use transform="rotate(16.005 113.979 2482.559) scale(.95929)" xlink:href="#a" width="744.094" height="1052.362" fill="#7d14c4" stroke="#7d14c4"/>
<use transform="scale(.98143) rotate(41.462 35.328 928.984)" xlink:href="#a" width="744.094" height="1052.362" fill="#33cfce" stroke="#33cfce"/>
<use transform="matrix(1.08998 -.31072 .31072 1.08998 763.556 17.127)" xlink:href="#a" width="744.094" height="1052.362" fill="#ff3c57" stroke="#ff3c57"/>
<use transform="scale(.93939) rotate(47.013 -76.576 887.5)" xlink:href="#a" width="744.094" height="1052.362" fill="#f13e6b" stroke="#f13e6b"/>
<use transform="matrix(.7681 -.49633 .49633 .7681 681.996 19.014)" xlink:href="#a" width="744.094" height="1052.362" fill="#84004b" stroke="#84004b"/>
<use transform="matrix(.75642 .52235 -.52235 .75642 620.59 552.41)" xlink:href="#a" width="744.094" height="1052.362" fill="#55126d" stroke="#55126d"/>
<use transform="rotate(18.174 -1430.95 2611.552) scale(1.20849)" xlink:href="#a" width="744.094" height="1052.362" fill="#97000a" stroke="#97000a"/>
<use transform="matrix(1.11147 .5038 -.5038 1.11147 720.994 658.33)" xlink:href="#a" width="744.094" height="1052.362" fill="#1adfe7" stroke="#1adfe7"/>
<use transform="matrix(.3467 -.82231 .82231 .3467 596.965 392.263)" xlink:href="#a" width="744.094" height="1052.362" fill="#9f1488" stroke="#9f1488"/>
<use transform="rotate(78.3 -355.853 729.548) scale(.92886)" xlink:href="#a" width="744.094" height="1052.362" fill="#61cffd" stroke="#61cffd"/>
<use transform="matrix(.49853 .57402 -.57402 .49853 554.541 900.206)" xlink:href="#a" width="744.094" height="1052.362" fill="#0b057a" stroke="#0b057a"/>
<use transform="rotate(-22.523 2137.364 -1550.434) scale(1.0907)" xlink:href="#a" width="744.094" height="1052.362" fill="#f6bb74" stroke="#f6bb74"/>
<use transform="matrix(.99051 -.03058 .03058 .99051 715.591 952.425)" xlink:href="#a" width="744.094" height="1052.362" fill="#2bff28" stroke="#2bff28"/>
<use transform="matrix(.87085 -.87915 .87915 .87085 747.09 783.535)" xlink:href="#a" width="744.094" height="1052.362" fill="#31f75c" stroke="#31f75c"/>
<use transform="matrix(1.2844 .0781 -.0781 1.2844 798.459 1135.103)" xlink:href="#a" width="744.094" height="1052.362" fill="#13828b" stroke="#13828b"/>
<use transform="rotate(72.636 -740.48 1031.422) scale(1.25098)" xlink:href="#a" width="744.094" height="1052.362" fill="#ca5233" stroke="#ca5233"/>
<use transform="matrix(.8902 .8395 -.8395 .8902 689.31 230.295)" xlink:href="#a" width="744.094" height="1052.362" fill="#2b0c66" stroke="#2b0c66"/>
<use transform="rotate(-9.648 419.561 -4965.838) scale(1.21433)" xlink:href="#a" width="744.094" height="1052.362" fill="#008c61" stroke="#008c61"/>
<use transform="rotate(-20.671 320.53 -1976.958) scale(.77554)" xlink:href="#a" width="744.094" height="1052.362" fill="#f0fe3d" stroke="#f0fe3d"/>
<use transform="rotate(41.565 -102.246 1063.329) scale(1.08974)" xlink:href="#a" width="744.094" height="1052.362" fill="#b33063" stroke="#b33063"/>
<use transform="matrix(.96557 -.40902 .40902 .96557 781.618 50.422)" xlink:href="#a" width="744.094" height="1052.362" fill="#a8de86" stroke="#a8de86"/>
<use transform="matrix(.71237 -.59904 .59904 .71237 721.4 24.067)" xlink:href="#a" width="744.094" height="1052.362" fill="#5f0077" stroke="#5f0077"/>
<use transform="matrix(.95973 .44254 -.44254 .95973 742.713 490.804)" xlink:href="#a" width="744.094" height="1052.362" fill="#6eea49" stroke="#6eea49"/>
<use transform="rotate(77.648 -160.87 619.35) scale(1.03784)" xlink:href="#a" width="744.094" height="1052.362" fill="#5fffa9" stroke="#5fffa9"/>
<use transform="matrix(.5983 .67717 -.67717 .5983 618.94 613.926)" xlink:href="#a" width="744.094" height="1052.362" fill="#6cfccd" stroke="#6cfccd"/>
<use transform="matrix(.85078 -.89 .89 .85078 781.363 237.454)" xlink:href="#a" width="744.094" height="1052.362" fill="#0054bb" stroke="#0054bb"/>
<use transform="matrix(.93703 -.22035 .22035 .93703 777.473 612.409)" xlink:href="#a" width="744.094" height="1052.362" fill="#6e00ea" stroke="#6e00ea"/>
<use transform="matrix(.8134 -.2185 .2185 .8134 728.932 640.75)" xlink:href="#a" width="744.094" height="1052.362" fill="#3508ff" stroke="#3508ff"/>
<use transform="matrix(.57075 -.68661 .68661 .57075 697.988 536.98)" xlink:href="#a" width="744.094" height="1052.362" fill="#2642bb" stroke="#2642bb"/>
<use transform="rotate(-22.979 2418.14 -1340.725) scale(.81785)" xlink:href="#a" width="744.094" height="1052.362" fill="#c57c00" stroke="#c57c00"/>
<use transform="rotate(77.944 -513.227 905.96) scale(.99455)" xlink:href="#a" width="744.094" height="1052.362" fill="#00f5a5" stroke="#00f5a5"/>
<use transform="matrix(1.26238 -.2862 .2862 1.26238 861.161 982.861)" xlink:href="#a" width="744.094" height="1052.362" fill="#4014c3" stroke="#4014c3"/>
<use transform="matrix(.50471 -.79343 .79343 .50471 671.532 829.282)" xlink:href="#a" width="744.094" height="1052.362" fill="#2ed6ff" stroke="#2ed6ff"/>
<use transform="rotate(-67.127 126.92 -651.112) scale(.89684)" xlink:href="#a" width="744.094" height="1052.362" fill="#9f00fc" stroke="#9f00fc"/>
<use transform="rotate(-61.796 155.297 -735.23) scale(1.00205)" xlink:href="#a" width="744.094" height="1052.362" fill="#fa002d" stroke="#fa002d"/>
<use transform="matrix(.97585 .0869 -.0869 .97585 811.011 108.802)" xlink:href="#a" width="744.094" height="1052.362" fill="#3066ff" stroke="#3066ff"/>
<use transform="rotate(-1.381 5505.133 -34328.066) scale(1.05762)" xlink:href="#a" width="744.094" height="1052.362" fill="#1b3da5" stroke="#1b3da5"/>
<use transform="scale(.98631) rotate(77.268 6.09 535.74)" xlink:href="#a" width="744.094" height="1052.362" fill="#da84aa" stroke="#da84aa"/>
<use transform="rotate(13.066 -853.65 3476.448) scale(.91847)" xlink:href="#a" width="744.094" height="1052.362" fill="#0da017" stroke="#0da017"/>
<use transform="matrix(1.08521 -.63445 .63445 1.08521 888.867 97.224)" xlink:href="#a" width="744.094" height="1052.362" fill="#e6c9f0" stroke="#e6c9f0"/>
<use transform="rotate(20.652 -851.099 2548.155) scale(1.27992)" xlink:href="#a" width="744.094" height="1052.362" fill="#001ee1" stroke="#001ee1"/>
<use transform="matrix(1.12424 .33228 -.33228 1.12424 822.107 471.457)" xlink:href="#a" width="744.094" height="1052.362" fill="#b90ff7" stroke="#b90ff7"/>
<use transform="matrix(.81302 -.38508 .38508 .81302 778.713 281.566)" xlink:href="#a" width="744.094" height="1052.362" fill="#1f724f" stroke="#1f724f"/>
<use transform="rotate(49.405 -373.191 1072.569) scale(1.05121)" xlink:href="#a" width="744.094" height="1052.362" fill="#5af6fb" stroke="#5af6fb"/>
<use transform="rotate(-23.588 1294.318 -1979.356) scale(1.27822)" xlink:href="#a" width="744.094" height="1052.362" fill="#3cff25" stroke="#3cff25"/>
<use transform="rotate(70.461 110.347 578.21) scale(1.17173)" xlink:href="#a" width="744.094" height="1052.362" fill="#12a290" stroke="#12a290"/>
<use transform="matrix(1.05482 .19088 -.19088 1.05482 875.032 101.716)" xlink:href="#a" width="744.094" height="1052.362" fill="#cd4f4b" stroke="#cd4f4b"/>
<use transform="scale(.89457) rotate(-68.298 253.62 -705.398)" xlink:href="#a" width="744.094" height="1052.362" fill="#001d7b" stroke="#001d7b"/>
<use transform="scale(.81902) rotate(41.694 -13.344 1298.808)" xlink:href="#a" width="744.094" height="1052.362" fill="#00d601" stroke="#00d601"/>
<use transform="matrix(.3342 -.81078 .81078 .3342 730.793 -98.47)" xlink:href="#a" width="744.094" height="1052.362" fill="#002fa8" stroke="#002fa8"/>
<use transform="matrix(.87747 -.67486 .67486 .87747 862.955 28.911)" xlink:href="#a" width="744.094" height="1052.362" fill="#1f9eae" stroke="#1f9eae"/>
<use transform="matrix(.79432 -.20306 .20306 .79432 813.342 194.148)" xlink:href="#a" width="744.094" height="1052.362" fill="#61f866" stroke="#61f866"/>
<use transform="rotate(16.316 -955.722 3035.277) scale(.90191)" xlink:href="#a" width="744.094" height="1052.362" fill="#01ff9f" stroke="#01ff9f"/>
<use transform="rotate(66.727 -138.279 787.592) scale(1.02135)" xlink:href="#a" width="744.094" height="1052.362" fill="#6f69e4" stroke="#6f69e4"/>
<use transform="rotate(-47.055 609.832 -822.753) scale(.94445)" xlink:href="#a" width="744.094" height="1052.362" fill="#d50080" stroke="#d50080"/>
<use transform="rotate(73.043 -141.138 714.08) scale(.8617)" xlink:href="#a" width="744.094" height="1052.362" fill="#5ad2ac" stroke="#5ad2ac"/>
<use transform="matrix(.13996 .73209 -.73209 .13996 556.603 657.99)" xlink:href="#a" width="744.094" height="1052.362" fill="#4c277f" stroke="#4c277f"/>
<use transform="matrix(.98102 .37633 -.37633 .98102 867.18 150.309)" xlink:href="#a" width="744.094" height="1052.362" fill="#3e00ce" stroke="#3e00ce"/>
<use transform="rotate(-36.391 312.143 -1310.285) scale(.84898)" xlink:href="#a" width="744.094" height="1052.362" fill="#732bc4" stroke="#732bc4"/>
<use transform="matrix(1.06684 -.61119 .61119 1.06684 959.48 -26.716)" xlink:href="#a" width="744.094" height="1052.362" fill="#68c400" stroke="#68c400"/>
<use transform="matrix(1.0392 -.2967 .2967 1.0392 928.736 100.378)" xlink:href="#a" width="744.094" height="1052.362" fill="#49ff5a" stroke="#49ff5a"/>
<use transform="matrix(.86914 -.4465 .4465 .86914 888.224 91.089)" xlink:href="#a" width="744.094" height="1052.362" fill="#2ba8ba" stroke="#2ba8ba"/>
<use transform="rotate(-51.429 471.071 -805.246) scale(.77554)" xlink:href="#a" width="744.094" height="1052.362" fill="#4da0f7" stroke="#4da0f7"/>
<use transform="matrix(1.0157 -.31342 .31342 1.0157 932.985 218.228)" xlink:href="#a" width="744.094" height="1052.362" fill="#33e6ff" stroke="#33e6ff"/>
<use transform="rotate(-24.375 981.211 -2114.305) scale(1.18858)" xlink:href="#a" width="744.094" height="1052.362" fill="#260996" stroke="#260996"/>
<use transform="rotate(53.618 -307.994 1117.498) scale(1.28602)" xlink:href="#a" width="744.094" height="1052.362" fill="#f60673" stroke="#f60673"/>
<use transform="matrix(.83513 -.06078 .06078 .83513 872.292 425.505)" xlink:href="#a" width="744.094" height="1052.362" fill="#b9007d" stroke="#b9007d"/>
<use transform="rotate(-27.413 1197.646 -1790.684) scale(1.21444)" xlink:href="#a" width="744.094" height="1052.362" fill="#61191e" stroke="#61191e"/>
<use transform="matrix(1.0156 -.16221 .16221 1.0156 958.996 -2.401)" xlink:href="#a" width="744.094" height="1052.362" fill="#ff1f35" stroke="#ff1f35"/>
<use transform="scale(1.2946) rotate(59.847 41.013 671.566)" xlink:href="#a" width="744.094" height="1052.362" fill="#c954d8" stroke="#c954d8"/>
<use transform="rotate(.599 -14239.035 93031.516) scale(1.07758)" xlink:href="#a" width="744.094" height="1052.362" fill="#ff3039" stroke="#ff3039"/>
<use transform="rotate(69.779 65.295 700.168) scale(.9363)" xlink:href="#a" width="744.094" height="1052.362" fill="#ce588e" stroke="#ce588e"/>
<use transform="matrix(.98562 -.3274 .3274 .98562 972.637 124.524)" xlink:href="#a" width="744.094" height="1052.362" fill="#a9ff6c" stroke="#a9ff6c"/>
<use transform="scale(1.2771) rotate(-20.53 738.125 -2205.27)" xlink:href="#a" width="744.094" height="1052.362" fill="#00db6f" stroke="#00db6f"/>
<use transform="rotate(55.326 -127.406 1000.617) scale(.99392)" xlink:href="#a" width="744.094" height="1052.362" fill="#aeffa1" stroke="#aeffa1"/>
<use transform="matrix(.55236 .60316 -.60316 .55236 780.979 505.073)" xlink:href="#a" width="744.094" height="1052.362" fill="#e055ed" stroke="#e055ed"/>
<use transform="matrix(.93432 -.8418 .8418 .93432 995.432 167.84)" xlink:href="#a" width="744.094" height="1052.362" fill="#41ecff" stroke="#41ecff"/>
<use transform="matrix(.76337 .2772 -.2772 .76337 858.836 524.936)" xlink:href="#a" width="744.094" height="1052.362" fill="#0e5fff" stroke="#0e5fff"/>
<use transform="rotate(-3.655 8068.608 -15516.278) scale(1.17837)" xlink:href="#a" width="744.094" height="1052.362" fill="#3988ff" stroke="#3988ff"/>
<use transform="matrix(1.0083 .24106 -.24106 1.0083 994.322 209.432)" xlink:href="#a" width="744.094" height="1052.362" fill="#1bff7a" stroke="#1bff7a"/>
<use transform="scale(.76407) rotate(74.828 177.96 831.796)" xlink:href="#a" width="744.094" height="1052.362" fill="#00599b" stroke="#00599b"/>
<use transform="rotate(-59.996 376.365 -878.262) scale(1.20741)" xlink:href="#a" width="744.094" height="1052.362" fill="#5028d7" stroke="#5028d7"/>
<use transform="rotate(-58.86 422.207 -888.444) scale(1.28936)" xlink:href="#a" width="744.094" height="1052.362" fill="#0582ff" stroke="#0582ff"/>
<use transform="rotate(-55.326 495.752 -890.213) scale(1.12376)" xlink:href="#a" width="744.094" height="1052.362" fill="#ff7a26" stroke="#ff7a26"/>
<use transform="matrix(.55808 -1.14419 1.14419 .55808 955.08 3.567)" xlink:href="#a" width="744.094" height="1052.362" fill="#3a1a64" stroke="#3a1a64"/>
<use transform="rotate(-29.538 956.117 -1912.366) scale(1.27454)" xlink:href="#a" width="744.094" height="1052.362" fill="#de7c42" stroke="#de7c42"/>
<use transform="scale(.77204) rotate(-46.926 974.93 -1164.29)" xlink:href="#a" width="744.094" height="1052.362" fill="#496b0b" stroke="#496b0b"/>
<use transform="matrix(.7825 .3345 -.3345 .7825 905.827 588.316)" xlink:href="#a" width="744.094" height="1052.362" fill="#cdfe3c" stroke="#cdfe3c"/>
<use transform="rotate(-60.179 325.97 -963.757) scale(1.22087)" xlink:href="#a" width="744.094" height="1052.362" fill="#8c00b0" stroke="#8c00b0"/>
<use transform="scale(1.1698) rotate(-7.613 1412.02 -7045.6)" xlink:href="#a" width="744.094" height="1052.362" fill="#8788c6" stroke="#8788c6"/>
<use transform="rotate(8.439 -1136.094 6621.03) scale(.71529)" xlink:href="#a" width="744.094" height="1052.362" fill="#1c00d8" stroke="#1c00d8"/>
<use transform="rotate(-1.214 14003.657 -51747.226) scale(1.20506)" xlink:href="#a" width="744.094" height="1052.362" fill="#7d7abb" stroke="#7d7abb"/>
<use transform="rotate(47.169 -75.396 1233.466) scale(.78718)" xlink:href="#a" width="744.094" height="1052.362" fill="#ff8b42" stroke="#ff8b42"/>
<use transform="rotate(-33.948 830.615 -1481.87) scale(.81081)" xlink:href="#a" width="744.094" height="1052.362" fill="#dd1130" stroke="#dd1130"/>
<use transform="scale(.9941) rotate(80.902 -8.667 763.414)" xlink:href="#a" width="744.094" height="1052.362" fill="#128c21" stroke="#128c21"/>
<use transform="rotate(-48.929 729.052 -933.928) scale(.87841)" xlink:href="#a" width="744.094" height="1052.362" fill="#00aec9" stroke="#00aec9"/></g></svg>